<?xml version="1.0" encoding="UTF-8" standalone="no"?>
<!DOCTYPE svg PUBLIC "-//W3C//DTD SVG 1.1//EN"
 "http://www.w3.org/Graphics/SVG/1.1/DTD/svg11.dtd">
<!-- Generated by graphviz version 2.30.1 (20201013.1554)
 -->
<!-- Title: %3 Pages: 1 -->
<svg width="1448pt" height="764pt"
 viewBox="0.00 0.00 1448.00 764.00" xmlns="http://www.w3.org/2000/svg" xmlns:xlink="http://www.w3.org/1999/xlink">
<g id="graph0" class="graph" transform="scale(1 1) rotate(0) translate(4 760)">
<title>%3</title>
<polygon fill="white" stroke="white" points="-4,5 -4,-760 1445,-760 1445,5 -4,5"/>
<!-- [root] google_compute_backend_service.backend1 (expand) -->
<g id="node1" class="node"><title>[root] google_compute_backend_service.backend1 (expand)</title>
<polygon fill="none" stroke="black" points="779.25,-324 520.75,-324 520.75,-288 779.25,-288 779.25,-324"/>
<text text-anchor="middle" x="650" y="-302.3" font-family="Times,serif" font-size="14.00">google_compute_backend_service.backend1</text>
</g>
<!-- [root] google_compute_region_instance_group_manager.default (expand) -->
<g id="node8" class="node"><title>[root] google_compute_region_instance_group_manager.default (expand)</title>
<polygon fill="none" stroke="black" points="832.25,-252 501.75,-252 501.75,-216 832.25,-216 832.25,-252"/>
<text text-anchor="middle" x="667" y="-230.3" font-family="Times,serif" font-size="14.00">google_compute_region_instance_group_manager.default</text>
</g>
<!-- [root] google_compute_backend_service.backend1 (expand)&#45;&gt;[root] google_compute_region_instance_group_manager.default (expand) -->
<g id="edge1" class="edge"><title>[root] google_compute_backend_service.backend1 (expand)&#45;&gt;[root] google_compute_region_instance_group_manager.default (expand)</title>
<path fill="none" stroke="black" d="M654.202,-287.697C656.096,-279.898 658.377,-270.509 660.484,-261.829"/>
<polygon fill="black" stroke="black" points="663.887,-262.648 662.846,-252.104 657.085,-260.996 663.887,-262.648"/>
</g>
<!-- [root] google_compute_firewall.default_ssh (expand) -->
<g id="node2" class="node"><title>[root] google_compute_firewall.default_ssh (expand)</title>
<polygon fill="none" stroke="black" points="218,-612 0,-612 0,-576 218,-576 218,-612"/>
<text text-anchor="middle" x="109" y="-590.3" font-family="Times,serif" font-size="14.00">google_compute_firewall.default_ssh</text>
</g>
<!-- [root] provider[&quot;registry.terraform.io/hashicorp/google&quot;] -->
<g id="node15" class="node"><title>[root] provider[&quot;registry.terraform.io/hashicorp/google&quot;]</title>
<polygon fill="none" stroke="black" points="587,-108 321.545,-90 587,-72 852.455,-90 587,-108"/>
<text text-anchor="middle" x="587" y="-86.3" font-family="Times,serif" font-size="14.00">provider[&quot;registry.terraform.io/hashicorp/google&quot;]</text>
</g>
<!-- [root] google_compute_firewall.default_ssh (expand)&#45;&gt;[root] provider[&quot;registry.terraform.io/hashicorp/google&quot;] -->
<g id="edge2" class="edge"><title>[root] google_compute_firewall.default_ssh (expand)&#45;&gt;[root] provider[&quot;registry.terraform.io/hashicorp/google&quot;]</title>
<path fill="none" stroke="black" d="M121.018,-575.989C138.006,-550.227 167,-499.2 167,-451 167,-451 167,-451 167,-233 167,-173.503 213.315,-169.649 267,-144 317.106,-120.061 376.092,-106.701 429.683,-99.3212"/>
<polygon fill="black" stroke="black" points="430.166,-102.788 439.623,-98.0117 429.251,-95.8479 430.166,-102.788"/>
</g>
<!-- [root] google_compute_firewall.mig_health_check (expand) -->
<g id="node3" class="node"><title>[root] google_compute_firewall.mig_health_check (expand)</title>
<polygon fill="none" stroke="black" points="492,-612 236,-612 236,-576 492,-576 492,-612"/>
<text text-anchor="middle" x="364" y="-590.3" font-family="Times,serif" font-size="14.00">google_compute_firewall.mig_health_check</text>
</g>
<!-- [root] google_compute_firewall.mig_health_check (expand)&#45;&gt;[root] provider[&quot;registry.terraform.io/hashicorp/google&quot;] -->
<g id="edge3" class="edge"><title>[root] google_compute_firewall.mig_health_check (expand)&#45;&gt;[root] provider[&quot;registry.terraform.io/hashicorp/google&quot;]</title>
<path fill="none" stroke="black" d="M342.897,-575.68C315.458,-551.075 271,-503.161 271,-451 271,-451 271,-451 271,-233 271,-192.553 260.921,-172.114 290,-144 313.46,-121.318 384.444,-108.16 451.132,-100.628"/>
<polygon fill="black" stroke="black" points="451.8,-104.076 461.361,-99.5125 451.04,-97.1177 451.8,-104.076"/>
</g>
<!-- [root] google_compute_global_forwarding_rule.default (expand) -->
<g id="node4" class="node"><title>[root] google_compute_global_forwarding_rule.default (expand)</title>
<polygon fill="none" stroke="black" points="779.25,-540 498.75,-540 498.75,-504 779.25,-504 779.25,-540"/>
<text text-anchor="middle" x="639" y="-518.3" font-family="Times,serif" font-size="14.00">google_compute_global_forwarding_rule.default</text>
</g>
<!-- [root] google_compute_target_https_proxy.default (expand) -->
<g id="node12" class="node"><title>[root] google_compute_target_https_proxy.default (expand)</title>
<polygon fill="none" stroke="black" points="777,-468 523,-468 523,-432 777,-432 777,-468"/>
<text text-anchor="middle" x="650" y="-446.3" font-family="Times,serif" font-size="14.00">google_compute_target_https_proxy.default</text>
</g>
<!-- [root] google_compute_global_forwarding_rule.default (expand)&#45;&gt;[root] google_compute_target_https_proxy.default (expand) -->
<g id="edge4" class="edge"><title>[root] google_compute_global_forwarding_rule.default (expand)&#45;&gt;[root] google_compute_target_https_proxy.default (expand)</title>
<path fill="none" stroke="black" d="M641.719,-503.697C642.931,-495.983 644.388,-486.712 645.739,-478.112"/>
<polygon fill="black" stroke="black" points="649.217,-478.526 647.312,-468.104 642.302,-477.44 649.217,-478.526"/>
</g>
<!-- [root] google_compute_health_check.mig_health_check (expand) -->
<g id="node5" class="node"><title>[root] google_compute_health_check.mig_health_check (expand)</title>
<polygon fill="none" stroke="black" points="586.25,-180 299.75,-180 299.75,-144 586.25,-144 586.25,-180"/>
<text text-anchor="middle" x="443" y="-158.3" font-family="Times,serif" font-size="14.00">google_compute_health_check.mig_health_check</text>
</g>
<!-- [root] google_compute_health_check.mig_health_check (expand)&#45;&gt;[root] provider[&quot;registry.terraform.io/hashicorp/google&quot;] -->
<g id="edge5" class="edge"><title>[root] google_compute_health_check.mig_health_check (expand)&#45;&gt;[root] provider[&quot;registry.terraform.io/hashicorp/google&quot;]</title>
<path fill="none" stroke="black" d="M478.226,-143.876C498.97,-133.792 525.281,-121.002 546.829,-110.528"/>
<polygon fill="black" stroke="black" points="548.585,-113.565 556.049,-106.046 545.525,-107.27 548.585,-113.565"/>
</g>
<!-- [root] google_compute_instance_template.default (expand) -->
<g id="node6" class="node"><title>[root] google_compute_instance_template.default (expand)</title>
<polygon fill="none" stroke="black" points="857.25,-180 604.75,-180 604.75,-144 857.25,-144 857.25,-180"/>
<text text-anchor="middle" x="731" y="-158.3" font-family="Times,serif" font-size="14.00">google_compute_instance_template.default</text>
</g>
<!-- [root] google_compute_instance_template.default (expand)&#45;&gt;[root] provider[&quot;registry.terraform.io/hashicorp/google&quot;] -->
<g id="edge6" class="edge"><title>[root] google_compute_instance_template.default (expand)&#45;&gt;[root] provider[&quot;registry.terraform.io/hashicorp/google&quot;]</title>
<path fill="none" stroke="black" d="M695.774,-143.876C675.03,-133.792 648.719,-121.002 627.171,-110.528"/>
<polygon fill="black" stroke="black" points="628.475,-107.27 617.951,-106.046 625.415,-113.565 628.475,-107.27"/>
</g>
<!-- [root] google_compute_region_autoscaler.default (expand) -->
<g id="node7" class="node"><title>[root] google_compute_region_autoscaler.default (expand)</title>
<polygon fill="none" stroke="black" points="932,-612 682,-612 682,-576 932,-576 932,-612"/>
<text text-anchor="middle" x="807" y="-590.3" font-family="Times,serif" font-size="14.00">google_compute_region_autoscaler.default</text>
</g>
<!-- [root] google_compute_region_autoscaler.default (expand)&#45;&gt;[root] google_compute_region_instance_group_manager.default (expand) -->
<g id="edge7" class="edge"><title>[root] google_compute_region_autoscaler.default (expand)&#45;&gt;[root] google_compute_region_instance_group_manager.default (expand)</title>
<path fill="none" stroke="black" d="M807.198,-575.951C807.489,-549.292 808,-496.116 808,-451 808,-451 808,-451 808,-377 808,-336.458 813.791,-319.281 788,-288 776.658,-274.244 761.046,-263.955 744.803,-256.296"/>
<polygon fill="black" stroke="black" points="745.758,-252.893 735.194,-252.084 742.948,-259.304 745.758,-252.893"/>
</g>
<!-- [root] google_compute_region_instance_group_manager.default (expand)&#45;&gt;[root] google_compute_health_check.mig_health_check (expand) -->
<g id="edge8" class="edge"><title>[root] google_compute_region_instance_group_manager.default (expand)&#45;&gt;[root] google_compute_health_check.mig_health_check (expand)</title>
<path fill="none" stroke="black" d="M612.49,-215.966C580.784,-206.057 540.645,-193.514 507.387,-183.121"/>
<polygon fill="black" stroke="black" points="508.343,-179.753 497.755,-180.111 506.255,-186.434 508.343,-179.753"/>
</g>
<!-- [root] google_compute_region_instance_group_manager.default (expand)&#45;&gt;[root] google_compute_instance_template.default (expand) -->
<g id="edge9" class="edge"><title>[root] google_compute_region_instance_group_manager.default (expand)&#45;&gt;[root] google_compute_instance_template.default (expand)</title>
<path fill="none" stroke="black" d="M682.82,-215.697C690.57,-207.22 700.039,-196.864 708.524,-187.583"/>
<polygon fill="black" stroke="black" points="711.197,-189.846 715.362,-180.104 706.031,-185.123 711.197,-189.846"/>
</g>
<!-- [root] google_compute_router.default (expand) -->
<g id="node9" class="node"><title>[root] google_compute_router.default (expand)</title>
<polygon fill="none" stroke="black" points="1024,-468 838,-468 838,-432 1024,-432 1024,-468"/>
<text text-anchor="middle" x="931" y="-446.3" font-family="Times,serif" font-size="14.00">google_compute_router.default</text>
</g>
<!-- [root] google_compute_router.default (expand)&#45;&gt;[root] provider[&quot;registry.terraform.io/hashicorp/google&quot;] -->
<g id="edge10" class="edge"><title>[root] google_compute_router.default (expand)&#45;&gt;[root] provider[&quot;registry.terraform.io/hashicorp/google&quot;]</title>
<path fill="none" stroke="black" d="M921.218,-431.798C915.791,-421.647 909.291,-408.397 905,-396 891.771,-357.778 886,-347.447 886,-307 886,-307 886,-307 886,-233 886,-192.458 895.141,-172.186 866,-144 843.672,-122.404 775.728,-109.227 712.484,-101.413"/>
<polygon fill="black" stroke="black" points="712.727,-97.9174 702.382,-100.205 711.895,-104.868 712.727,-97.9174"/>
</g>
<!-- [root] google_compute_router_nat.default (expand) -->
<g id="node10" class="node"><title>[root] google_compute_router_nat.default (expand)</title>
<polygon fill="none" stroke="black" points="1160,-612 950,-612 950,-576 1160,-576 1160,-612"/>
<text text-anchor="middle" x="1055" y="-590.3" font-family="Times,serif" font-size="14.00">google_compute_router_nat.default</text>
</g>
<!-- [root] google_compute_router_nat.default (expand)&#45;&gt;[root] google_compute_router.default (expand) -->
<g id="edge11" class="edge"><title>[root] google_compute_router_nat.default (expand)&#45;&gt;[root] google_compute_router.default (expand)</title>
<path fill="none" stroke="black" d="M1007.34,-575.991C989.668,-567.583 970.832,-555.783 958,-540 943.714,-522.428 936.977,-497.396 933.806,-478.353"/>
<polygon fill="black" stroke="black" points="937.235,-477.608 932.353,-468.205 930.306,-478.6 937.235,-477.608"/>
</g>
<!-- [root] google_compute_ssl_certificate.example (expand) -->
<g id="node11" class="node"><title>[root] google_compute_ssl_certificate.example (expand)</title>
<polygon fill="none" stroke="black" points="1151.25,-396 914.75,-396 914.75,-360 1151.25,-360 1151.25,-396"/>
<text text-anchor="middle" x="1033" y="-374.3" font-family="Times,serif" font-size="14.00">google_compute_ssl_certificate.example</text>
</g>
<!-- [root] google_compute_ssl_certificate.example (expand)&#45;&gt;[root] provider[&quot;registry.terraform.io/hashicorp/google&quot;] -->
<g id="edge12" class="edge"><title>[root] google_compute_ssl_certificate.example (expand)&#45;&gt;[root] provider[&quot;registry.terraform.io/hashicorp/google&quot;]</title>
<path fill="none" stroke="black" d="M1028.67,-359.777C1016.66,-315.772 978.458,-198.827 900,-144 869.851,-122.932 786.056,-109.425 712.751,-101.323"/>
<polygon fill="black" stroke="black" points="712.801,-97.8078 702.483,-100.215 712.05,-104.767 712.801,-97.8078"/>
</g>
<!-- [root] tls_self_signed_cert.example (expand) -->
<g id="node18" class="node"><title>[root] tls_self_signed_cert.example (expand)</title>
<polygon fill="none" stroke="black" points="1274.25,-324 1101.75,-324 1101.75,-288 1274.25,-288 1274.25,-324"/>
<text text-anchor="middle" x="1188" y="-302.3" font-family="Times,serif" font-size="14.00">tls_self_signed_cert.example</text>
</g>
<!-- [root] google_compute_ssl_certificate.example (expand)&#45;&gt;[root] tls_self_signed_cert.example (expand) -->
<g id="edge13" class="edge"><title>[root] google_compute_ssl_certificate.example (expand)&#45;&gt;[root] tls_self_signed_cert.example (expand)</title>
<path fill="none" stroke="black" d="M1070.92,-359.876C1092.01,-350.349 1118.46,-338.407 1140.87,-328.283"/>
<polygon fill="black" stroke="black" points="1142.53,-331.374 1150.21,-324.068 1139.65,-324.994 1142.53,-331.374"/>
</g>
<!-- [root] google_compute_target_https_proxy.default (expand)&#45;&gt;[root] google_compute_ssl_certificate.example (expand) -->
<g id="edge14" class="edge"><title>[root] google_compute_target_https_proxy.default (expand)&#45;&gt;[root] google_compute_ssl_certificate.example (expand)</title>
<path fill="none" stroke="black" d="M743.203,-431.966C799.613,-421.656 871.636,-408.492 929.768,-397.867"/>
<polygon fill="black" stroke="black" points="930.504,-401.291 939.712,-396.05 929.246,-394.405 930.504,-401.291"/>
</g>
<!-- [root] google_compute_url_map.default (expand) -->
<g id="node13" class="node"><title>[root] google_compute_url_map.default (expand)</title>
<polygon fill="none" stroke="black" points="750,-396 550,-396 550,-360 750,-360 750,-396"/>
<text text-anchor="middle" x="650" y="-374.3" font-family="Times,serif" font-size="14.00">google_compute_url_map.default</text>
</g>
<!-- [root] google_compute_target_https_proxy.default (expand)&#45;&gt;[root] google_compute_url_map.default (expand) -->
<g id="edge15" class="edge"><title>[root] google_compute_target_https_proxy.default (expand)&#45;&gt;[root] google_compute_url_map.default (expand)</title>
<path fill="none" stroke="black" d="M650,-431.697C650,-423.983 650,-414.712 650,-406.112"/>
<polygon fill="black" stroke="black" points="653.5,-406.104 650,-396.104 646.5,-406.104 653.5,-406.104"/>
</g>
<!-- [root] google_compute_url_map.default (expand)&#45;&gt;[root] google_compute_backend_service.backend1 (expand) -->
<g id="edge16" class="edge"><title>[root] google_compute_url_map.default (expand)&#45;&gt;[root] google_compute_backend_service.backend1 (expand)</title>
<path fill="none" stroke="black" d="M650,-359.697C650,-351.983 650,-342.712 650,-334.112"/>
<polygon fill="black" stroke="black" points="653.5,-334.104 650,-324.104 646.5,-334.104 653.5,-334.104"/>
</g>
<!-- [root] output.external_ip -->
<g id="node14" class="node"><title>[root] output.external_ip</title>
<polygon fill="none" stroke="black" points="619.25,-612 510.75,-612 510.75,-576 625.25,-576 625.25,-606 619.25,-612"/>
<polyline fill="none" stroke="black" points="619.25,-612 619.25,-606 "/>
<polyline fill="none" stroke="black" points="625.25,-606 619.25,-606 "/>
<text text-anchor="middle" x="568" y="-590.3" font-family="Times,serif" font-size="14.00">output.external_ip</text>
</g>
<!-- [root] output.external_ip&#45;&gt;[root] google_compute_global_forwarding_rule.default (expand) -->
<g id="edge22" class="edge"><title>[root] output.external_ip&#45;&gt;[root] google_compute_global_forwarding_rule.default (expand)</title>
<path fill="none" stroke="black" d="M585.551,-575.697C594.234,-567.135 604.863,-556.656 614.348,-547.304"/>
<polygon fill="black" stroke="black" points="616.988,-549.617 621.651,-540.104 612.073,-544.633 616.988,-549.617"/>
</g>
<!-- [root] var.project -->
<g id="node19" class="node"><title>[root] var.project</title>
<polygon fill="none" stroke="black" points="527,-36 459,-36 459,-0 533,-0 533,-30 527,-36"/>
<polyline fill="none" stroke="black" points="527,-36 527,-30 "/>
<polyline fill="none" stroke="black" points="533,-30 527,-30 "/>
<text text-anchor="middle" x="496" y="-14.3" font-family="Times,serif" font-size="14.00">var.project</text>
</g>
<!-- [root] provider[&quot;registry.terraform.io/hashicorp/google&quot;]&#45;&gt;[root] var.project -->
<g id="edge28" class="edge"><title>[root] provider[&quot;registry.terraform.io/hashicorp/google&quot;]&#45;&gt;[root] var.project</title>
<path fill="none" stroke="black" d="M566.351,-73.1159C554.564,-64.0494 539.568,-52.5141 526.452,-42.4249"/>
<polygon fill="black" stroke="black" points="528.218,-39.3672 518.157,-36.0442 523.95,-44.9155 528.218,-39.3672"/>
</g>
<!-- [root] var.region -->
<g id="node20" class="node"><title>[root] var.region</title>
<polygon fill="none" stroke="black" points="616.25,-36 551.75,-36 551.75,-0 622.25,-0 622.25,-30 616.25,-36"/>
<polyline fill="none" stroke="black" points="616.25,-36 616.25,-30 "/>
<polyline fill="none" stroke="black" points="622.25,-30 616.25,-30 "/>
<text text-anchor="middle" x="587" y="-14.3" font-family="Times,serif" font-size="14.00">var.region</text>
</g>
<!-- [root] provider[&quot;registry.terraform.io/hashicorp/google&quot;]&#45;&gt;[root] var.region -->
<g id="edge29" class="edge"><title>[root] provider[&quot;registry.terraform.io/hashicorp/google&quot;]&#45;&gt;[root] var.region</title>
<path fill="none" stroke="black" d="M587,-71.6966C587,-63.9827 587,-54.7125 587,-46.1124"/>
<polygon fill="black" stroke="black" points="590.5,-46.1043 587,-36.1043 583.5,-46.1044 590.5,-46.1043"/>
</g>
<!-- [root] var.zone -->
<g id="node21" class="node"><title>[root] var.zone</title>
<polygon fill="none" stroke="black" points="697,-36 641,-36 641,-0 703,-0 703,-30 697,-36"/>
<polyline fill="none" stroke="black" points="697,-36 697,-30 "/>
<polyline fill="none" stroke="black" points="703,-30 697,-30 "/>
<text text-anchor="middle" x="672" y="-14.3" font-family="Times,serif" font-size="14.00">var.zone</text>
</g>
<!-- [root] provider[&quot;registry.terraform.io/hashicorp/google&quot;]&#45;&gt;[root] var.zone -->
<g id="edge30" class="edge"><title>[root] provider[&quot;registry.terraform.io/hashicorp/google&quot;]&#45;&gt;[root] var.zone</title>
<path fill="none" stroke="black" d="M606.288,-73.1159C617.297,-64.0494 631.304,-52.5141 643.555,-42.4249"/>
<polygon fill="black" stroke="black" points="645.809,-45.1031 651.303,-36.0442 641.359,-39.6995 645.809,-45.1031"/>
</g>
<!-- [root] provider[&quot;registry.terraform.io/hashicorp/tls&quot;] -->
<g id="node16" class="node"><title>[root] provider[&quot;registry.terraform.io/hashicorp/tls&quot;]</title>
<polygon fill="none" stroke="black" points="1196,-180 951.756,-162 1196,-144 1440.24,-162 1196,-180"/>
<text text-anchor="middle" x="1196" y="-158.3" font-family="Times,serif" font-size="14.00">provider[&quot;registry.terraform.io/hashicorp/tls&quot;]</text>
</g>
<!-- [root] tls_private_key.example (expand) -->
<g id="node17" class="node"><title>[root] tls_private_key.example (expand)</title>
<polygon fill="none" stroke="black" points="1265,-252 1119,-252 1119,-216 1265,-216 1265,-252"/>
<text text-anchor="middle" x="1192" y="-230.3" font-family="Times,serif" font-size="14.00">tls_private_key.example</text>
</g>
<!-- [root] tls_private_key.example (expand)&#45;&gt;[root] provider[&quot;registry.terraform.io/hashicorp/tls&quot;] -->
<g id="edge35" class="edge"><title>[root] tls_private_key.example (expand)&#45;&gt;[root] provider[&quot;registry.terraform.io/hashicorp/tls&quot;]</title>
<path fill="none" stroke="black" d="M1192.99,-215.697C1193.43,-207.983 1193.96,-198.712 1194.45,-190.112"/>
<polygon fill="black" stroke="black" points="1197.95,-190.288 1195.02,-180.104 1190.96,-189.888 1197.95,-190.288"/>
</g>
<!-- [root] tls_self_signed_cert.example (expand)&#45;&gt;[root] tls_private_key.example (expand) -->
<g id="edge36" class="edge"><title>[root] tls_self_signed_cert.example (expand)&#45;&gt;[root] tls_private_key.example (expand)</title>
<path fill="none" stroke="black" d="M1188.99,-287.697C1189.43,-279.983 1189.96,-270.712 1190.45,-262.112"/>
<polygon fill="black" stroke="black" points="1193.95,-262.288 1191.02,-252.104 1186.96,-261.888 1193.95,-262.288"/>
</g>
<!-- [root] meta.count&#45;boundary (EachMode fixup) -->
<g id="node22" class="node"><title>[root] meta.count&#45;boundary (EachMode fixup)</title>
<ellipse fill="none" stroke="black" cx="377" cy="-666" rx="176.202" ry="18"/>
<text text-anchor="middle" x="377" y="-662.3" font-family="Times,serif" font-size="14.00">[root] meta.count&#45;boundary (EachMode fixup)</text>
</g>
<!-- [root] meta.count&#45;boundary (EachMode fixup)&#45;&gt;[root] google_compute_firewall.default_ssh (expand) -->
<g id="edge17" class="edge"><title>[root] meta.count&#45;boundary (EachMode fixup)&#45;&gt;[root] google_compute_firewall.default_ssh (expand)</title>
<path fill="none" stroke="black" d="M315.851,-649.028C276.663,-638.793 225.532,-625.438 183.911,-614.566"/>
<polygon fill="black" stroke="black" points="184.656,-611.143 174.096,-612.003 182.887,-617.916 184.656,-611.143"/>
</g>
<!-- [root] meta.count&#45;boundary (EachMode fixup)&#45;&gt;[root] google_compute_firewall.mig_health_check (expand) -->
<g id="edge18" class="edge"><title>[root] meta.count&#45;boundary (EachMode fixup)&#45;&gt;[root] google_compute_firewall.mig_health_check (expand)</title>
<path fill="none" stroke="black" d="M373.787,-647.697C372.354,-639.983 370.632,-630.712 369.035,-622.112"/>
<polygon fill="black" stroke="black" points="372.444,-621.297 367.177,-612.104 365.561,-622.575 372.444,-621.297"/>
</g>
<!-- [root] meta.count&#45;boundary (EachMode fixup)&#45;&gt;[root] google_compute_region_autoscaler.default (expand) -->
<g id="edge19" class="edge"><title>[root] meta.count&#45;boundary (EachMode fixup)&#45;&gt;[root] google_compute_region_autoscaler.default (expand)</title>
<path fill="none" stroke="black" d="M466.357,-650.453C531.791,-639.801 621.145,-625.255 691.921,-613.734"/>
<polygon fill="black" stroke="black" points="692.915,-617.118 702.223,-612.057 691.791,-610.209 692.915,-617.118"/>
</g>
<!-- [root] meta.count&#45;boundary (EachMode fixup)&#45;&gt;[root] google_compute_router_nat.default (expand) -->
<g id="edge20" class="edge"><title>[root] meta.count&#45;boundary (EachMode fixup)&#45;&gt;[root] google_compute_router_nat.default (expand)</title>
<path fill="none" stroke="black" d="M502.539,-653.377C650.568,-639.648 882.866,-618.02 939.765,-612.016"/>
<polygon fill="black" stroke="black" points="940.193,-615.49 949.746,-610.909 939.421,-608.533 940.193,-615.49"/>
</g>
<!-- [root] meta.count&#45;boundary (EachMode fixup)&#45;&gt;[root] output.external_ip -->
<g id="edge21" class="edge"><title>[root] meta.count&#45;boundary (EachMode fixup)&#45;&gt;[root] output.external_ip</title>
<path fill="none" stroke="black" d="M421.781,-648.588C448.726,-638.713 483.26,-626.057 512,-615.524"/>
<polygon fill="black" stroke="black" points="513.32,-618.767 521.505,-612.04 510.911,-612.195 513.32,-618.767"/>
</g>
<!-- [root] provider[&quot;registry.terraform.io/hashicorp/google&quot;] (close) -->
<g id="node23" class="node"><title>[root] provider[&quot;registry.terraform.io/hashicorp/google&quot;] (close)</title>
<ellipse fill="none" stroke="black" cx="807" cy="-666" rx="235.394" ry="18"/>
<text text-anchor="middle" x="807" y="-662.3" font-family="Times,serif" font-size="14.00">[root] provider[&quot;registry.terraform.io/hashicorp/google&quot;] (close)</text>
</g>
<!-- [root] provider[&quot;registry.terraform.io/hashicorp/google&quot;] (close)&#45;&gt;[root] google_compute_firewall.default_ssh (expand) -->
<g id="edge23" class="edge"><title>[root] provider[&quot;registry.terraform.io/hashicorp/google&quot;] (close)&#45;&gt;[root] google_compute_firewall.default_ssh (expand)</title>
<path fill="none" stroke="black" d="M647.986,-652.709C533.929,-643.361 376.36,-629.362 228.445,-612.138"/>
<polygon fill="black" stroke="black" points="228.604,-608.633 218.265,-610.945 227.79,-615.585 228.604,-608.633"/>
</g>
<!-- [root] provider[&quot;registry.terraform.io/hashicorp/google&quot;] (close)&#45;&gt;[root] google_compute_firewall.mig_health_check (expand) -->
<g id="edge24" class="edge"><title>[root] provider[&quot;registry.terraform.io/hashicorp/google&quot;] (close)&#45;&gt;[root] google_compute_firewall.mig_health_check (expand)</title>
<path fill="none" stroke="black" d="M709.508,-649.595C642.355,-638.984 552.767,-624.828 481.644,-613.589"/>
<polygon fill="black" stroke="black" points="482.159,-610.127 471.735,-612.024 481.066,-617.042 482.159,-610.127"/>
</g>
<!-- [root] provider[&quot;registry.terraform.io/hashicorp/google&quot;] (close)&#45;&gt;[root] google_compute_global_forwarding_rule.default (expand) -->
<g id="edge25" class="edge"><title>[root] provider[&quot;registry.terraform.io/hashicorp/google&quot;] (close)&#45;&gt;[root] google_compute_global_forwarding_rule.default (expand)</title>
<path fill="none" stroke="black" d="M735.183,-648.787C712.947,-640.805 689.883,-629.082 673,-612 656.442,-595.247 647.785,-569.592 643.362,-550.123"/>
<polygon fill="black" stroke="black" points="646.789,-549.415 641.366,-540.313 639.93,-550.811 646.789,-549.415"/>
</g>
<!-- [root] provider[&quot;registry.terraform.io/hashicorp/google&quot;] (close)&#45;&gt;[root] google_compute_region_autoscaler.default (expand) -->
<g id="edge26" class="edge"><title>[root] provider[&quot;registry.terraform.io/hashicorp/google&quot;] (close)&#45;&gt;[root] google_compute_region_autoscaler.default (expand)</title>
<path fill="none" stroke="black" d="M807,-647.697C807,-639.983 807,-630.712 807,-622.112"/>
<polygon fill="black" stroke="black" points="810.5,-622.104 807,-612.104 803.5,-622.104 810.5,-622.104"/>
</g>
<!-- [root] provider[&quot;registry.terraform.io/hashicorp/google&quot;] (close)&#45;&gt;[root] google_compute_router_nat.default (expand) -->
<g id="edge27" class="edge"><title>[root] provider[&quot;registry.terraform.io/hashicorp/google&quot;] (close)&#45;&gt;[root] google_compute_router_nat.default (expand)</title>
<path fill="none" stroke="black" d="M865.458,-648.5C901.083,-638.444 946.836,-625.53 984.464,-614.909"/>
<polygon fill="black" stroke="black" points="985.671,-618.206 994.344,-612.121 983.769,-611.469 985.671,-618.206"/>
</g>
<!-- [root] provider[&quot;registry.terraform.io/hashicorp/tls&quot;] (close) -->
<g id="node24" class="node"><title>[root] provider[&quot;registry.terraform.io/hashicorp/tls&quot;] (close)</title>
<ellipse fill="none" stroke="black" cx="1188" cy="-522" rx="220.471" ry="18"/>
<text text-anchor="middle" x="1188" y="-518.3" font-family="Times,serif" font-size="14.00">[root] provider[&quot;registry.terraform.io/hashicorp/tls&quot;] (close)</text>
</g>
<!-- [root] provider[&quot;registry.terraform.io/hashicorp/tls&quot;] (close)&#45;&gt;[root] tls_self_signed_cert.example (expand) -->
<g id="edge31" class="edge"><title>[root] provider[&quot;registry.terraform.io/hashicorp/tls&quot;] (close)&#45;&gt;[root] tls_self_signed_cert.example (expand)</title>
<path fill="none" stroke="black" d="M1188,-503.849C1188,-466.832 1188,-379.181 1188,-334.386"/>
<polygon fill="black" stroke="black" points="1191.5,-334.232 1188,-324.232 1184.5,-334.232 1191.5,-334.232"/>
</g>
<!-- [root] root -->
<g id="node25" class="node"><title>[root] root</title>
<ellipse fill="none" stroke="black" cx="807" cy="-738" rx="47.169" ry="18"/>
<text text-anchor="middle" x="807" y="-734.3" font-family="Times,serif" font-size="14.00">[root] root</text>
</g>
<!-- [root] root&#45;&gt;[root] meta.count&#45;boundary (EachMode fixup) -->
<g id="edge32" class="edge"><title>[root] root&#45;&gt;[root] meta.count&#45;boundary (EachMode fixup)</title>
<path fill="none" stroke="black" d="M764.198,-730.032C697.653,-719.199 567.595,-698.027 476.651,-683.222"/>
<polygon fill="black" stroke="black" points="477.027,-679.737 466.594,-681.585 475.902,-686.646 477.027,-679.737"/>
</g>
<!-- [root] root&#45;&gt;[root] provider[&quot;registry.terraform.io/hashicorp/google&quot;] (close) -->
<g id="edge33" class="edge"><title>[root] root&#45;&gt;[root] provider[&quot;registry.terraform.io/hashicorp/google&quot;] (close)</title>
<path fill="none" stroke="black" d="M807,-719.697C807,-711.983 807,-702.712 807,-694.112"/>
<polygon fill="black" stroke="black" points="810.5,-694.104 807,-684.104 803.5,-694.104 810.5,-694.104"/>
</g>
<!-- [root] root&#45;&gt;[root] provider[&quot;registry.terraform.io/hashicorp/tls&quot;] (close) -->
<g id="edge34" class="edge"><title>[root] root&#45;&gt;[root] provider[&quot;registry.terraform.io/hashicorp/tls&quot;] (close)</title>
<path fill="none" stroke="black" d="M851.498,-731.873C901.434,-725.093 984.197,-710.75 1051,-684 1108.03,-661.162 1133.47,-662.122 1169,-612 1181.74,-594.03 1186.24,-569.237 1187.69,-550.382"/>
<polygon fill="black" stroke="black" points="1191.19,-550.505 1188.23,-540.332 1184.2,-550.131 1191.19,-550.505"/>
</g>
</g>
</svg>
